<?xml version="1.0" standalone="no"?>
<!DOCTYPE svg PUBLIC "-//W3C//DTD SVG 1.1//EN" "http://www.w3.org/Graphics/SVG/1.1/DTD/svg11.dtd">
<svg xmlns="http://www.w3.org/2000/svg">
<metadata>Copyright (C) 2018 by original authors @ fontello.com</metadata>
<defs>
<font id="ct" horiz-adv-x="1000" >
<font-face font-family="ct" font-weight="400" font-stretch="normal" units-per-em="1000" ascent="850" descent="-150" />
<missing-glyph horiz-adv-x="1000" />
<glyph glyph-name="ct-logo" unicode="&#xe800;" d="M843 516c-185 0-370 0-555 0-175 0-300-197-287-361 18-238 269-362 484-279 145 56 193 196 193 340 0 169 0 338 0 507 0 21 0 41 0 61 0 88-136 88-136 0 0-92 0-184 0-276 0-83 0-165 0-248 0-74 3-146-39-210-53-80-187-69-262-43-69 23-102 103-105 160-5 85 41 157 110 204 9 6 19 12 29 17 4 2-51-8-20-8 31 0 62 0 93 0 165 0 330 0 495 0 87 0 87 136 0 136l0 0z m-302-62c0-123 0-246 0-370 0-155 175-234 306-234 88 0 88 136 0 136-64 0-137 17-163 80-4 11-8 22-10 33 7-39 3 15 3 25 0 110 0 220 0 330 0 88-136 88-136 0l0 0z" horiz-adv-x="913" />

<glyph glyph-name="left" unicode="&#xe801;" d="M1000 404v-108q0-7-5-12t-13-5h-696v-125q0-12-11-17t-19 3l-215 196q-5 5-5 12 0 8 5 14l215 197q9 8 19 4 11-5 11-17v-125h696q8 0 13-5t5-12z" horiz-adv-x="1000" />

<glyph glyph-name="delete" unicode="&#xe802;" d="M250 58c0-45 38-83 83-83h334c46 0 83 38 83 83v500h-500v-500z m542 625h-146l-42 42h-208l-42-42h-146v-83h584v83z" horiz-adv-x="1000" />

<glyph glyph-name="clipboard" unicode="&#xe803;" d="M792 725h-175c-17 48-63 83-117 83s-100-35-117-83h-175c-46 0-83-37-83-83v-584c0-46 37-83 83-83h584c46 0 83 37 83 83v584c0 46-37 83-83 83z m-292 0c23 0 42-18 42-42s-19-41-42-41-42 18-42 41 19 42 42 42z m83-583h-291v83h291v-83z m125 166h-416v84h416v-84z m0 167h-416v83h416v-83z" horiz-adv-x="1000" />

<glyph glyph-name="bug" unicode="&#xe804;" d="M833 517h-117c-18 32-44 60-75 81l67 68-59 59-90-91c-19 5-39 8-59 8s-40-3-59-8l-90 91-59-59 67-68c-31-21-56-49-75-81h-117v-84h87c-2-13-4-27-4-41v-42h-83v-83h83v-42c0-14 2-28 4-42h-87v-83h117c43-75 124-125 216-125s173 50 216 125h117v83h-87c3 14 4 28 4 42v42h83v83h-83v42c0 14-1 28-4 41h87v84z m-250-334h-166v84h166v-84z m0 167h-166v83h166v-83z" horiz-adv-x="1000" />

<glyph glyph-name="checked" unicode="&#xe805;" d="M375 176l-174 174-59-59 233-233 500 500-59 59z" horiz-adv-x="1000" />

<glyph glyph-name="info" unicode="&#xe806;" d="M500 767c-230 0-417-187-417-417s187-417 417-417 417 187 417 417-187 417-417 417z m42-625h-84v250h84v-250z m0 333h-84v83h84v-83z" horiz-adv-x="1000" />

<glyph glyph-name="add" unicode="&#xe807;" d="M583 767h-333c-46 0-83-38-83-84l0-666c0-46 37-84 83-84h500c46 0 83 38 83 84v500l-250 250z m84-584h-125v-125h-84v125h-125v84h125v125h84v-125h125v-84z m-125 292v229l229-229h-229z" horiz-adv-x="1000" />

<glyph glyph-name="clock" unicode="&#xe808;" d="M500 767c-230 0-417-187-417-417s187-417 417-417c230 0 417 187 417 417s-187 417-417 417z m0-750c-184 0-333 149-333 333s149 333 333 333 333-149 333-333-149-333-333-333z m21 541h-63v-250l219-131 31 51-187 112z" horiz-adv-x="1000" />

<glyph glyph-name="search" unicode="&#xe809;" d="M646 267h-33l-12 11c41 47 66 109 66 176 0 150-122 271-271 271s-271-121-271-271 121-271 271-271c67 0 129 25 176 66l11-12v-33l209-208 62 62-208 209z m-250 0c-104 0-188 84-188 187s84 188 188 188 187-84 187-188-84-187-187-187z" horiz-adv-x="1000" />

<glyph glyph-name="settings" unicode="&#xe80a;" d="M810 309c1 14 3 27 3 41s-2 27-3 41l88 69c8 6 10 17 5 26l-84 145c-5 9-16 12-25 9l-104-42c-21 16-45 30-70 41l-16 110c-2 10-10 18-21 18h-166c-11 0-19-8-21-18l-16-110c-25-11-48-25-70-41l-104 42c-9 3-20 0-25-9l-83-145c-6-9-3-20 5-26l87-69c-1-14-2-27-2-41s1-27 2-41l-87-69c-8-6-11-17-5-26l83-145c5-9 16-12 25-9l104 42c22-16 45-30 70-41l16-110c2-10 10-18 21-18h166c11 0 19 8 21 18l16 110c25 11 49 25 70 41l104-42c9-3 20 0 25 9l84 145c5 9 2 20-5 26l-88 69z m-310-105c-81 0-146 65-146 146s65 146 146 146 146-65 146-146-65-146-146-146z" horiz-adv-x="1000" />

<glyph glyph-name="error" unicode="&#xe80b;" d="M500 767c-230 0-417-187-417-417s187-417 417-417 417 187 417 417-187 417-417 417z m42-625h-84v83h84v-83z m0 166h-84v250h84v-250z" horiz-adv-x="1000" />

<glyph glyph-name="warning" unicode="&#xe80c;" d="M42-25h916l-458 792-458-792z m500 125h-84v83h84v-83z m0 167h-84v166h84v-166z" horiz-adv-x="1000" />

<glyph glyph-name="restore" unicode="&#xe80d;" d="M500 642v166l-208-208 208-208v166c138 0 250-111 250-250s-112-250-250-250-250 112-250 250h-83c0-184 149-333 333-333s333 149 333 333-149 334-333 334z" horiz-adv-x="1000" />

<glyph glyph-name="plus" unicode="&#xe80e;" d="M792 308h-250v-250h-84v250h-250v84h250v250h84v-250h250v-84z" horiz-adv-x="1000" />

<glyph glyph-name="close" unicode="&#xe80f;" d="M792 583l-59 59-233-233-233 233-59-59 233-233-233-233 59-59 233 233 233-233 59 59-233 233z" horiz-adv-x="1000" />

<glyph glyph-name="list" unicode="&#xe810;" d="M167 413c-35 0-63-28-63-63s28-62 63-62 62 27 62 62-28 63-62 63z m0 250c-35 0-63-28-63-63s28-62 63-62 62 27 62 62-28 63-62 63z m0-507c-31 0-56-25-56-56s25-56 56-56 55 25 55 56-25 56-55 56z m125-98h583v84h-583v-84z m0 250h583v84h-583v-84z m0 334v-84h583v84h-583z" horiz-adv-x="1000" />

<glyph glyph-name="upload" unicode="&#xe811;" d="M375 183h250v250h167l-292 292-292-292h167z m-167-83h584v-83h-584z" horiz-adv-x="1000" />

<glyph glyph-name="archive" unicode="&#xe812;" d="M417 683h-250c-46 0-83-37-83-83l-1-500c0-46 38-83 84-83h666c46 0 84 37 84 83v417c0 46-38 83-84 83h-333l-83 83z" horiz-adv-x="1000" />

<glyph glyph-name="edit" unicode="&#xe813;" d="M125 131v-156h156l461 461-156 156-461-461z m738 426c16 16 16 42 0 58l-98 98c-16 16-42 16-58 0l-77-76 157-157 76 77z" horiz-adv-x="1000" />

<glyph glyph-name="user" unicode="&#xe814;" d="M500 683c-92 0-167-74-167-166 0-92 75-167 167-167s167 75 167 167c0 92-75 166-167 166z m0-416c-111 0-333-56-333-167v-83h666v83c0 111-222 167-333 167z" horiz-adv-x="1000" />

<glyph glyph-name="angle-right" unicode="&#xe815;" d="M417 600l-59-59 191-191-191-191 59-59 250 250z" horiz-adv-x="1000" />

<glyph glyph-name="angle-down" unicode="&#xe816;" d="M691 492l-191-191-191 191-59-59 250-250 250 250z" horiz-adv-x="1000" />

<glyph glyph-name="more-ver" unicode="&#xe817;" d="M500 517c46 0 83 37 83 83s-37 83-83 83-83-37-83-83 37-83 83-83z m0-84c-46 0-83-37-83-83s37-83 83-83 83 37 83 83-37 83-83 83z m0-250c-46 0-83-37-83-83s37-83 83-83 83 37 83 83-37 83-83 83z" horiz-adv-x="1000" />

<glyph glyph-name="group" unicode="&#xe818;" d="M667 392c69 0 124 56 124 125s-55 125-124 125c-69 0-125-56-125-125s56-125 125-125z m-334 0c69 0 125 56 125 125s-56 125-125 125c-69 0-125-56-125-125s56-125 125-125z m0-84c-97 0-291-48-291-145v-105h583v105c0 97-194 145-292 145z m334 0c-12 0-26 0-40-2 48-35 81-82 81-143v-105h250v105c0 97-194 145-291 145z" horiz-adv-x="1000" />

<glyph glyph-name="test-tube" unicode="&#xe819;" d="M974 606l-256 235c-13 13-34 12-47-1l-8-9c-13-13-12-35 2-48l5-5-615-653c-27-29-41-66-39-106s18-75 47-102l31-28c27-25 62-39 99-39 40 0 79 17 106 46l618 656 3-4c14-12 35-11 48 2l7 9c13 13 13 35-1 47z m-366-312l-227 108 316 335 176-162-265-281z" horiz-adv-x="1000" />

<glyph glyph-name="wrench" unicode="&#xe81a;" d="M946 58l-379 380c37 95 16 208-63 287-83 83-208 100-308 54l179-179-125-125-183 179c-50-100-29-225 54-308 79-79 192-100 287-63l380-379c16-17 41-17 58 0l96 96c21 17 21 46 4 58z" horiz-adv-x="1000" />

<glyph glyph-name="gender-female" unicode="&#xe81b;" d="M500 683c138 0 250-112 250-250 0-123-90-226-208-246v-87h83v-83h-83v-84h-84v84h-83v83h83v87c-118 20-208 123-208 246 0 138 112 250 250 250m0-83c-92 0-167-75-167-167 0-92 75-166 167-166 92 0 167 74 167 166 0 92-75 167-167 167z" horiz-adv-x="1000" />

<glyph glyph-name="gender-male" unicode="&#xe81c;" d="M375 475c54 0 104-17 145-46l213 213h-191v83h333v-333h-83v191l-213-212c29-42 46-92 46-146 0-138-112-250-250-250-138 0-250 112-250 250 0 138 112 250 250 250m0-83c-92 0-167-75-167-167 0-92 75-167 167-167 92 0 167 75 167 167 0 92-75 167-167 167z" horiz-adv-x="1000" />

<glyph glyph-name="gender-both" unicode="&#xe81d;" d="M733 683h-150v84h292v-292h-83v150l-160-160c22-33 35-73 35-115 0-101-72-185-167-204v-88h83v-83h-83v-83h-83v83h-84v83h84v88c-95 19-167 103-167 204 0 115 93 208 208 208 42 0 82-12 115-34l160 159m-275-208c-69 0-125-56-125-125 0-69 56-125 125-125 70 0 125 56 125 125 0 69-55 125-125 125z" horiz-adv-x="1000" />

<glyph glyph-name="chart-bar" unicode="&#xe81e;" d="M917-25h-834v750h84v-667h83v375h167v-375h83v542h167v-542h83v209h167v-292z" horiz-adv-x="1000" />

<glyph glyph-name="book-open" unicode="&#xe81f;" d="M542 350h291v-62h-291m0 166h291v-62h-291m0-146h291v-63h-291m333 500h-750c-46 0-83-37-83-83v-542c0-45 37-83 83-83h750c46 0 83 38 83 83v542c0 46-37 83-83 83m0-625h-375v542h375" horiz-adv-x="1000" />

<glyph glyph-name="quick" unicode="&#xe820;" d="M292 767v-459h125v-375l291 500h-166l166 334z" horiz-adv-x="1000" />

<glyph glyph-name="copy-clipboard" unicode="&#xe821;" d="M667 225h-167v-125l-208 208 208 209v-125h167m-167 333c23 0 42-19 42-42 0-23-19-41-42-41-23 0-42 18-42 41 0 23 19 42 42 42m292 0h-174c-18 48-64 83-118 83-54 0-100-35-117-83h-175c-45 0-83-37-83-83v-584c0-45 38-83 83-83h584c46 0 83 38 83 83v584c0 46-37 83-83 83z" horiz-adv-x="1000" />

<glyph glyph-name="logout" unicode="&#xe822;" d="M420 201l59-59 209 208-209 208-59-59 108-107h-403v-84h403l-108-107z m372 524h-584c-46 0-83-37-83-83v-167h83v167h584v-584h-584v167h-83v-167c0-46 37-83 83-83h584c46 0 83 37 83 83v584c0 46-37 83-83 83z" horiz-adv-x="1000" />

<glyph glyph-name="layers" unicode="&#xe823;" d="M500 183l307 239 68 53-375 292-375-292 68-53m307-344l-307 238-68-52 375-292 375 292-68 53-307-239z" horiz-adv-x="1000" />

<glyph glyph-name="rippie" unicode="&#xe824;" d="M286 564l-215 0 0-143 215 0 0-500 143 0 0 500 214 0 0 143-214 0 0 215-143 0 0-215 0 0z" horiz-adv-x="714" />

<glyph glyph-name="environment" unicode="&#xe825;" d="M83-67v625c0 23 19 42 42 42h167v167h416v-167h167c23 0 42-19 42-42v-625h-334v209h-166v-209h-334m292 750v-250h83v84h84v-84h83v250h-83v-83h-84v83h-83m-208-666h166v125h-166v-125m0 208h166v125h-166v-125m500-208h166v125h-166v-125m0 208h166v125h-166v-125m-250 0h166v125h-166v-125z" horiz-adv-x="1000" />

<glyph glyph-name="pill" unicode="&#xe826;" d="M176 380l294 294c98 98 256 98 354 0 98-97 98-256 0-354l-294-294c-98-98-257-98-354 0-98 98-98 256 0 354m59-60c-44-43-58-105-43-160l249 249 177-177 147 148c65 65 65 170 0 235-65 65-170 65-235 0l-295-295z" horiz-adv-x="1000" />

<glyph glyph-name="disable" unicode="&#xe827;" d="M500 767c-230 0-417-187-417-417s187-417 417-417 417 187 417 417-187 417-417 417z m0-750c-184 0-333 149-333 333 0 77 26 148 70 204l467-467c-56-44-127-70-204-70z m263 129l-467 467c56 44 127 70 204 70 184 0 333-149 333-333 0-77-26-148-70-204z" horiz-adv-x="1000" />

<glyph glyph-name="code" unicode="&#xe828;" d="M608 158l192 192-192 192 59 58 250-250-250-250-59 58m-216 0l-192 192 192 192-59 58-250-250 250-250 59 58z" horiz-adv-x="1000" />

<glyph glyph-name="link-off" unicode="&#xe829;" d="M83 630l54 53 696-696-53-54-201 202-109-109c-81-81-213-81-294 0-81 81-81 213 0 294l62 63c0-35 5-69 17-102l-20-19c-49-49-49-128 0-177 49-49 128-49 177 0l109 108-68 67c0-10-4-20-12-28-16-16-43-16-59 0-44 44-64 103-60 160l-239 238m447 44c81 81 213 81 294 0 81-81 81-213 0-294l-62-62c1 34-5 68-17 100l20 20c49 49 49 128 0 177-49 49-128 49-177 0l-138-139-59 59 139 139m29-206c16 16 43 16 59 0 57-57 74-139 51-211l-74 74c-2 28-14 56-36 78-17 16-17 43 0 59z" horiz-adv-x="1000" />

<glyph glyph-name="surgery" unicode="&#xe82a;" d="M421 837c44-2 92-24 130-62 71-71 84-173 29-228-31-32-80-41-128-29l529-624 2-2c6-7 6-17 0-24-7-7-17-7-24-2l-3 2-619 527c-1 1-2 2-3 2l-1 0c-1 1-2 2-3 3 13-49 5-99-28-131-54-55-157-41-227 29-71 71-83 172-28 227 55 55 156 42 226-28 6-6 11-12 16-18 4-1 7-3 9-6l35-29 13 47c2 6 7 10 12 11l47 15-29 35c-2 2-4 4-4 7-7 5-13 11-19 17-71 71-83 172-28 227 20 20 47 32 77 34 6 1 12 1 19 0l0 0z m-8-37c-23-1-44-9-60-25-43-43-33-123 22-178 6-6 12-11 19-16 1-1 2-1 2-2 1 0 1 0 1 0 2 0 4-1 6-3 1 0 1-2 2-2 51-33 111-33 146 2 43 43 33 121-22 176-34 35-78 51-116 48l0 0z m-263-276c-5 0-10 0-15 0-23-2-44-11-60-27-43-43-33-122 22-177 55-55 134-65 176-22 36 36 35 97 2 149-1 0-1 0-2 1-3 2-5 5-6 9 0 0 0 0 0 1-5 6-9 11-15 16-30 31-68 48-102 50l0 0z m281-36l-53-16-15-53 452-384-384 453 0 0z" horiz-adv-x="1000" />

<glyph glyph-name="related" unicode="&#xe82b;" d="M750 180c-32 0-60-12-82-32l-297 173c3 9 4 19 4 29s-1 20-4 29l294 172c22-21 52-34 85-34 69 0 125 56 125 125s-56 125-125 125-125-56-125-125c0-10 2-20 4-29l-294-172c-22 21-52 34-85 34-69 0-125-56-125-125s56-125 125-125c33 0 63 13 85 34l297-173c-2-9-3-18-3-28 0-67 54-121 121-121s122 54 122 121-55 122-122 122z" horiz-adv-x="1000" />

<glyph glyph-name="arrow-down" unicode="&#xe82c;" d="M458 683h84v-500l229 230 59-60-330-330-330 330 59 60 229-230v500z" horiz-adv-x="1000" />

<glyph glyph-name="arrow-up" unicode="&#xe82d;" d="M542 17h-84v500l-229-229-59 59 330 330 330-330-59-59-229 229v-500z" horiz-adv-x="1000" />

<glyph glyph-name="textbox" unicode="&#xe82e;" d="M708 558h209v-416h-209v-84c0-23 19-41 42-41h83v-84h-104c-23 0-62 19-62 42 0-23-40-42-63-42h-104v84h83c23 0 42 18 42 41v584c0 23-19 41-42 41h-83v84h104c23 0 63-19 63-42 0 23 39 42 62 42h104v-84h-83c-23 0-42-18-42-41v-84m-625 0h459v-83h-375v-250h375v-83h-459v416m750-333v250h-125v-250h125z" horiz-adv-x="1000" />

<glyph glyph-name="home" unicode="&#xe83a;" d="M417 17v250h166v-250h209v333h125l-417 375-417-375h125v-333h209z" horiz-adv-x="1000" />

<glyph glyph-name="reports" unicode="&#xe83c;" d="M125 600v-667h750v-83h-750c-46 0-83 37-83 83v667h83m542-125h229l-229 229v-229m-375 292h416l250-250v-417c0-46-37-83-83-83h-583c-47 0-84 37-84 83v583c0 46 38 84 84 84m0-84v-583h583v292h-292v291h-291z" horiz-adv-x="1000" />

<glyph glyph-name="pulse" unicode="&#xeb46;" d="M125 308h116l180 342 49-373 134 171 139-140h132v-83h-167l-97 97-198-252-40 309-81-154h-167v83z" horiz-adv-x="1000" />

<glyph glyph-name="spinner" unicode="&#xeb49;" d="M488-150c-223 0-418 139-488 344l195 63c42-124 159-207 293-207 169 0 307 134 307 300 0 166-138 300-307 300l-2 0 0 200 2 0c282 0 512-224 512-500 0-276-230-500-512-500z" horiz-adv-x="1000" />

<glyph glyph-name="download" unicode="&#xeb4a;" d="M208 17h584v83h-584m584 375h-167v250h-250v-250h-167l292-292 292 292z" horiz-adv-x="1000" />

<glyph glyph-name="drag-horizontal" unicode="&#xeb4b;" d="M125 225v83h83v-83h-83m0 167v83h83v-83h-83m167-167v83h83v-83h-83m0 167v83h83v-83h-83m166-167v83h84v-83h-84m0 167v83h84v-83h-84m167-167v83h83v-83h-83m0 167v83h83v-83h-83m167-167v83h83v-83h-83m0 167v83h83v-83h-83z" horiz-adv-x="1000" />

<glyph glyph-name="projects" unicode="&#xeb4c;" d="M583 142h-291v83h291m125 83h-416v84h416m0 83h-416v83h416m84 167h-584c-46 0-83-37-83-83v-584c0-45 38-83 83-83h584c46 0 83 38 83 83v584c0 46-37 83-83 83z" horiz-adv-x="1000" />

<glyph glyph-name="validation" unicode="&#xeb4e;" d="M904 294l-41-42-86 86 42 41c9 9 23 9 32 0l53-53c9-9 9-23 0-32m-404-233l253 252 85-85-252-253h-86v86m0 206c-184 0-333-75-333-167v-83h250v78l166 167c-27 3-55 5-83 5m0 416c-92 0-167-74-167-166 0-92 75-167 167-167 92 0 167 75 167 167 0 92-75 166-167 166z" horiz-adv-x="1000" />

<glyph glyph-name="drag-vertical" unicode="&#xeb50;" d="M375 725h83v-83h-83v83m167 0h83v-83h-83v83m-167-167h83v-83h-83v83m167 0h83v-83h-83v83m-167-166h83v-84h-83v84m167 0h83v-84h-83v84m-167-167h83v-83h-83v83m167 0h83v-83h-83v83m-167-167h83v-83h-83v83m167 0h83v-83h-83v83z" horiz-adv-x="1000" />

<glyph glyph-name="questions" unicode="&#xeb51;" d="M100 850c-55 0-100-45-100-100l0-600c0-55 45-100 100-100l200 0 0-150c0-28 23-50 50-50l25 0 0 0c13 0 25 5 35 14l185 186 305 0c55 0 100 45 100 100l0 600c0 56-45 100-100 100l-800 0 0 0z m0-100l800 0 0-600-346 0-154-154 0 154-300 0 0 600 0 0z m303-102c-28-18-42-48-39-82 36 0 36 0 98 0 0 14 5 24 13 31 10 7 21 11 35 11 15 0 29-4 38-13 9-9 13-20 13-35 0-14-4-26-11-37-8-11-19-20-32-27-26-16-43-30-53-42-10-12-15-29-15-54l100 0c0 14 3 25 7 34 5 9 13 16 26 24 23 10 42 24 57 42 14 19 22 38 22 60 0 35-14 63-41 84-27 21-64 31-111 31-45 0-80-9-107-27z m47-298l0-100 100 0 0 100-100 0z" horiz-adv-x="1000" />

<glyph glyph-name="marker" unicode="&#xeb52;" d="M771 802c-22 0-43-8-60-24l-242-243 236-235 242 242c32 33 32 85 0 118l-118 118c-16 16-37 24-58 24m-342-306l-248-248c-33-33-33-85 1-119-51-51-103-103-154-154h236l36 36c32-32 84-31 117 1l248 248" horiz-adv-x="1000" />

<glyph glyph-name="column" unicode="&#xeb53;" d="M333 767h334c46 0 83-38 83-84v-666c0-46-37-84-83-84h-334c-45 0-83 38-83 84v666c0 46 38 84 83 84m0-334v-166h334v166h-334m0-250v-166h334v166h-334m0 500v-166h334v166h-334z" horiz-adv-x="1000" />

<glyph glyph-name="email" unicode="&#xeb54;" d="M833 517l-333-209-333 209v83l333-208 333 208m0 83h-666c-47 0-84-37-84-83v-500a83 83 0 0 1 84-83h666a83 83 0 0 1 84 83v500c0 46-38 83-84 83z" horiz-adv-x="1000" />

<glyph glyph-name="gift" unicode="&#xeb55;" d="M917 350v-333c0-46-38-84-84-84h-666c-46 0-84 38-84 84v333c-23 0-41 19-41 42v125c0 46 37 83 83 83h132c-4 13-7 27-7 42 0 69 56 125 125 125 42 0 78-21 101-52v0l24-32 24 32v0c23 31 59 52 101 52 69 0 125-56 125-125 0-15-2-29-7-42h132c46 0 83-37 83-83v-125c0-23-18-42-41-42m-750-333h291v333h-291v-333m666 0v333h-291v-333h291m-458 666c-23 0-42-18-42-41 0-23 19-42 42-42 23 0 42 19 42 42 0 23-19 41-42 41m250 0c-23 0-42-18-42-41 0-23 19-42 42-42 23 0 42 19 42 42 0 23-19 41-42 41m-500-166v-84h333v84h-333m417 0v-84h333v84h-333z" horiz-adv-x="1000" />

<glyph glyph-name="open-in-new" unicode="&#xeb56;" d="M583 725v-83h150l-410-410 59-59 410 410v-150h83v292m-83-667h-584v584h292v83h-292c-46 0-83-37-83-83v-584c0-45 38-83 83-83h584c46 0 83 38 83 83v292h-83v-292z" horiz-adv-x="1000" />

<glyph glyph-name="account-plus" unicode="&#xeb58;" d="M625 267c-111 0-333-56-333-167v-83h666v83c0 111-222 167-333 167m-375 166v125h-83v-125h-125v-83h125v-125h83v125h125v83m250-83c92 0 167 75 167 167 0 92-75 166-167 166-92 0-167-74-167-166 0-92 75-167 167-167z" horiz-adv-x="1000" />

<glyph glyph-name="menu-down" unicode="&#xeb59;" d="M292 433l208-208 208 208h-416z" horiz-adv-x="1000" />

<glyph glyph-name="account-search" unicode="&#xeb5b;" d="M396 725c149 0 271-121 271-271 0-67-25-129-66-176l12-11h33l208-209-62-62-209 208v33l-11 12c-47-41-109-66-176-66-150 0-271 122-271 271 0 150 121 271 271 271m0-458c67 0 125 35 159 88-34 47-92 78-159 78-67 0-125-31-159-78 34-53 92-88 159-88m0 375c-41 0-73-33-73-73 0-41 32-73 73-73 40 0 73 32 73 73 0 40-33 73-73 73z" horiz-adv-x="1000" />

<glyph glyph-name="database-search" unicode="&#xeb5c;" d="M417 808c-184 0-334-74-334-166 0-86 131-156 298-165 54 52 127 81 202 81 34 0 67-5 98-17 43 28 69 63 69 101 0 92-149 166-333 166m-334-250v-125c0-70 87-129 209-154 2 42 13 83 32 120-139 20-241 84-241 159m497-80c-49-1-100-20-144-64-177-177 52-460 262-321l189-189 59 59-189 189c104 158-29 326-177 326m-1-86c66 2 129-49 129-125 0-69-55-125-125-125-111 0-166 134-88 213 25 25 55 37 84 37m-496-42v-125c0-85 129-155 295-165-38 37-64 84-77 134-127 24-218 84-218 156z" horiz-adv-x="1000" />

<glyph glyph-name="clipboard-check" unicode="&#xeb5d;" d="M417 142l-167 166 59 59 108-107 274 274 59-59m-250 250c23 0 42-19 42-42 0-23-19-41-42-41-23 0-42 18-42 41 0 23 19 42 42 42m292 0h-174c-18 48-64 83-118 83-54 0-100-35-117-83h-175c-45 0-83-37-83-83v-584c0-45 38-83 83-83h584c46 0 83 38 83 83v584c0 46-37 83-83 83z" horiz-adv-x="1000" />

<glyph glyph-name="account-check" unicode="&#xeb5e;" d="M375 642c80 0 146-66 146-146 0-81-66-146-146-146-80 0-146 65-146 146 0 80 66 146 146 146m0-365c161 0 292-65 292-146v-73h-584v73c0 81 131 146 292 146m333 46l-114 125 48 48 66-66 150 149 48-59-198-197z" horiz-adv-x="1000" />

<glyph glyph-name="sessions" unicode="&#xeb5f;" d="M500 725c-46 0-83-37-83-83h-292v-584h-42v-83h834v83h-42v584c0 46-37 83-83 83h-292m0-83h292v-584h-292v584m-292-250h84v-84h-84v84z" horiz-adv-x="1000" />

<glyph glyph-name="water" unicode="&#xeb60;" d="M500 17c-138 0-250 112-250 250 0 166 250 448 250 448 0 0 250-282 250-448 0-138-112-250-250-250z" horiz-adv-x="1000" />

<glyph glyph-name="needle" unicode="&#xeb61;" d="M465 218l-60 58 60 59 58-59 59 59-59 59 59 59 59-59 59 59-118 118-294-295 117-118 60 60m-337-160l130 130-88 88 412 413 89-89 58 59-58 59 58 59 177-177-58-58-60 58-59-58 89-89-413-412-88 88-189-189v118z" horiz-adv-x="1000" />

<glyph glyph-name="events" unicode="&#xeb62;" d="M875 142v375h-583v-375h583m0 583c46 0 83-37 83-83v-500c0-46-37-84-83-84h-583c-47 0-84 38-84 84v500c0 46 38 83 84 83h41v83h84v-83h333v83h83v-83h42m-750-750h583v-83h-583c-46 0-83 37-83 83v500h83v-500m667 250h-167v167h167v-167z" horiz-adv-x="1000" />

<glyph glyph-name="forms" unicode="&#xeb63;" d="M542 475h229l-229 229v-229m-292 292h333l250-250v-500c0-46-37-84-83-84h-500c-46 0-83 38-83 84v666c0 47 37 84 83 84m375-667v83h-375v-83h375m125 167v83h-500v-83h500z" horiz-adv-x="1000" />

<glyph glyph-name="brackets" unicode="&#xeb91;" d="M625 683v-83h125v-500h-125v-83h208v666m-666 0v-666h208v83h-125v500h125v83h-208z" horiz-adv-x="1000" />

<glyph glyph-name="calendar" unicode="&#xeb92;" d="M583 267h-291v-84h291m209-125h-584v459h584m0 208h-42v83h-83v-83h-334v83h-83v-83h-42c-46 0-83-37-83-83v-584c0-45 38-83 83-83h584c46 0 83 38 83 83v584c0 46-37 83-83 83m-84-292h-416v-83h416v83z" horiz-adv-x="1000" />

<glyph glyph-name="key" unicode="&#xeb93;" d="M292 267c-46 0-84 37-84 83 0 46 38 83 84 83 46 0 83-37 83-83 0-46-37-83-83-83m235 166c-34 97-127 167-235 167-138 0-250-112-250-250 0-138 112-250 250-250 108 0 201 70 235 167h181v-167h167v167h83v166h-431z" horiz-adv-x="1000" />

<glyph glyph-name="age" unicode="&#xeb94;" d="M340-10l-120 0 0 582-178-61 0 102 283 105 15 0 0-728z m602 534c0-36-9-67-27-95-18-28-43-50-75-66 38-17 67-41 88-72 20-30 30-65 30-103 0-64-21-115-64-152-44-38-101-56-173-56-72 0-129 19-173 56-43 38-65 88-65 152 0 38 10 73 31 104 21 31 50 55 87 71-31 16-56 38-74 66-18 28-27 59-27 95 0 62 20 111 59 147 40 36 94 54 162 54 68 0 122-18 162-54 40-36 59-85 59-147l0 0z m-105-330c0 35-10 64-32 86-21 23-50 34-85 34-35 0-63-11-84-33-21-22-32-51-32-87 0-36 11-64 31-86 21-21 50-31 86-31 37 0 65 10 86 30 20 21 30 50 30 87l0 0z m-15 325c0 32-9 58-27 78-19 21-43 31-74 31-31 0-56-10-73-29-18-20-27-46-27-80 0-33 9-59 27-79 18-19 42-29 73-29 31 0 56 10 74 29 18 20 27 46 27 79l0 0z" horiz-adv-x="1000" />

<glyph glyph-name="filter" unicode="&#xeb95;" d="M125 142v-84h250v84h-250m0 500v-84h417v84h-417m417-667v83h333v84h-333v83h-84v-250h84m-250 500v-83h-167v-84h167v-83h83v250h-83m583-167v84h-417v-84h417m-250 167h83v83h167v84h-167v83h-83v-250z" horiz-adv-x="1000" />

<glyph glyph-name="move" unicode="&#xeb96;" d="M542 600v-208h208v135l177-177-177-177v135h-208v-208h135l-177-177-177 177h135v208h-208v-135l-177 177 177 177v-135h208v208h-135l177 177 177-177h-135z" horiz-adv-x="1000" />

<glyph glyph-name="admission" unicode="&#xeb97;" d="M792 558h-334v-291h-333v375h-83v-625h83v125h750v-125h83v375c0 92-74 166-166 166m-500-250c69 0 125 56 125 125 0 70-56 125-125 125-69 0-125-55-125-125 0-69 56-125 125-125z" horiz-adv-x="1000" />

<glyph glyph-name="registries" unicode="&#xeb98;" d="M542 475h229l-229 229v-229m-292 292h333l250-250v-500c0-46-37-84-83-84h-500c-46 0-83 38-83 84v666c0 47 37 84 83 84m375-667v83h-375v-83h375m125 167v83h-500v-83h500z" horiz-adv-x="1000" />

<glyph glyph-name="dimensions" unicode="&#xeb99;" d="M83 725h834c43 0 83-40 83-83v-584c0-43-40-83-83-83h-834c-43 0-83 40-83 83v584c0 43 40 83 83 83m500-125v-42h334v42h-334m0-83v-42h313l21 0v42h-334m0-84v-41h292v41h-292m-250-163c-83 0-250-45-250-128v-42h500v42c0 83-166 128-250 128m0 330c-69 0-125-56-125-125 0-69 56-125 125-125 70 0 125 56 125 125 0 69-55 125-125 125z" horiz-adv-x="1000" />

<glyph glyph-name="table" unicode="&#xeb9a;" d="M208 683h584c46 0 83-37 83-83v-500c0-46-37-83-83-83h-584c-45 0-83 37-83 83v500c0 46 38 83 83 83m0-166v-167h250v167h-250m334 0v-167h250v167h-250m-334-250v-167h250v167h-250m334 0v-167h250v167h-250z" horiz-adv-x="1000" />

<glyph glyph-name="undo" unicode="&#xf114;" d="M417 475v167l-292-292 292-292v171c208 0 354-66 458-212-42 208-167 416-458 458z" horiz-adv-x="1000" />

<glyph glyph-name="term" unicode="&#xf18f;" d="M250 767c-46 0-83-38-83-84l0-666c0-46 37-84 83-84h500c46 0 83 38 83 84v500l-250 250h-333z m292-292v229l229-229h-229z" horiz-adv-x="1000" />

<glyph glyph-name="keywords" unicode="&#xf1c0;" d="M666 34l-158 160q33 53 33 115 0 86-60 147t-147 60-147-60-62-147 62-147 147-62q61 0 115 35l184-185q-24-16-49-16h-502q-33 0-58 24t-24 58v668q0 33 24 58t60 24h332l250-250v-482z m-457 274q0 52 36 89t88 37 89-37 37-89-37-88-89-36-88 36-36 88z" horiz-adv-x="666" />

<glyph glyph-name="more-hor" unicode="&#xf2a2;" d="M250 433c-46 0-83-37-83-83s37-83 83-83 83 37 83 83-37 83-83 83z m500 0c-46 0-83-37-83-83s37-83 83-83 83 37 83 83-37 83-83 83z m-250 0c-46 0-83-37-83-83s37-83 83-83 83 37 83 83-37 83-83 83z" horiz-adv-x="1000" />
</font>
</defs>
</svg>
